<svg width="30" height="30" viewBox="0 0 30 30" fill="none"
    xmlns="http://www.w3.org/2000/svg">
    <path d="M18.075 4.075L19.175 2.975C20.475 1.675 22.7375 1.675 24.0375 2.975L24.925 3.8625C25.2452 4.17998 25.4993 4.55773 25.6728 4.97394C25.8462 5.39016 25.9355 5.8366 25.9355 6.2875C25.9355 6.7384 25.8462 7.18484 25.6728 7.60106C25.4993 8.01727 25.2452 8.39502 24.925 8.7125L23.825 9.8125L18.075 4.0625V4.075ZM16.75 5.4L5.3625 16.7875C5 17.15 4.775 17.625 4.7375 18.1375L4.4 21.8C4.3625 22.2625 4.525 22.7125 4.85 23.05C5.15 23.35 5.5375 23.5125 5.95 23.5125H6.0875L9.75 23.175C10.2625 23.125 10.7375 22.9 11.1 22.5375L22.4875 11.15L16.7375 5.4H16.75ZM28.4375 27.5C28.4375 26.9875 28.0125 26.5625 27.5 26.5625H2.5C1.9875 26.5625 1.5625 26.9875 1.5625 27.5C1.5625 28.0125 1.9875 28.4375 2.5 28.4375H27.5C28.0125 28.4375 28.4375 28.0125 28.4375 27.5Z" fill="white" fill-opacity="0.7" />
</svg>