<svg width="30" height="30" viewBox="0 0 30 30" fill="none"
    xmlns="http://www.w3.org/2000/svg">
    <path d="M20.7439 1.85278H3.39258C1.52168 1.85278 0 3.37446 0 5.24536V20.4504C0 21.1706 0.814395 21.5765 1.38926 21.1659L6.22148 17.7182C6.62695 17.4293 7.10391 17.2764 7.60195 17.2764H18.2303C20.1012 17.2764 21.6229 15.7547 21.6229 13.8838V2.73169C21.6229 2.24653 21.2291 1.85278 20.7439 1.85278ZM16.4748 12.4999H6.31992C5.83477 12.4999 5.44102 12.1067 5.44102 11.6209C5.44102 11.1358 5.83477 10.742 6.31992 10.742H16.4748C16.96 10.742 17.3537 11.1358 17.3537 11.6209C17.3537 12.1067 16.96 12.4999 16.4748 12.4999ZM16.4748 8.39829H6.31992C5.83477 8.39829 5.44102 8.00513 5.44102 7.51938C5.44102 7.03423 5.83477 6.64048 6.31992 6.64048H16.4748C16.96 6.64048 17.3537 7.03423 17.3537 7.51938C17.3537 8.00513 16.96 8.39829 16.4748 8.39829Z" fill="white"></path>
    <path d="M30 12.0628V27.2673C30 27.9826 29.1898 28.3963 28.6108 27.9828L23.7786 24.5357C23.3731 24.2468 22.8961 24.0939 22.3981 24.0939H11.7698C9.89888 24.0939 8.3772 22.5716 8.3772 20.7007V19.0343H18.2303C21.0704 19.0343 23.3807 16.724 23.3807 13.8839V8.66968H26.6075C28.4784 8.66968 30 10.1919 30 12.0628Z" fill="white"></path>
</svg>